<mxfile host="app.diagrams.net" modified="2023-12-19T07:27:45.335Z" agent="Mozilla/5.0 (Windows NT 10.0; Win64; x64) AppleWebKit/537.36 (KHTML, like Gecko) Chrome/120.0.0.0 Safari/537.36" etag="Sh_SpgKXtIWk_f0ZMJnt" version="22.1.11" type="github">
  <diagram id="C5RBs43oDa-KdzZeNtuy" name="Page-1">
    <mxGraphModel dx="2120" dy="1839" grid="1" gridSize="10" guides="1" tooltips="1" connect="1" arrows="1" fold="1" page="1" pageScale="1" pageWidth="827" pageHeight="1169" math="0" shadow="0">
      <root>
        <mxCell id="WIyWlLk6GJQsqaUBKTNV-0" />
        <mxCell id="WIyWlLk6GJQsqaUBKTNV-1" parent="WIyWlLk6GJQsqaUBKTNV-0" />
        <mxCell id="abffdMrdUMkTcwWsMWbN-68" value="" style="shape=table;startSize=0;container=1;collapsible=0;childLayout=tableLayout;fontSize=16;movable=1;resizable=1;rotatable=1;deletable=1;editable=1;locked=0;connectable=1;" parent="WIyWlLk6GJQsqaUBKTNV-1" vertex="1">
          <mxGeometry x="-800" y="-1120" width="857" height="940" as="geometry" />
        </mxCell>
        <mxCell id="abffdMrdUMkTcwWsMWbN-69" value="" style="shape=tableRow;horizontal=0;startSize=0;swimlaneHead=0;swimlaneBody=0;strokeColor=inherit;top=0;left=0;bottom=0;right=0;collapsible=0;dropTarget=0;fillColor=none;points=[[0,0.5],[1,0.5]];portConstraint=eastwest;fontSize=16;" parent="abffdMrdUMkTcwWsMWbN-68" vertex="1">
          <mxGeometry width="857" height="29" as="geometry" />
        </mxCell>
        <mxCell id="abffdMrdUMkTcwWsMWbN-70" value="Legacy System" style="shape=partialRectangle;html=1;whiteSpace=wrap;connectable=0;strokeColor=inherit;overflow=hidden;fillColor=none;top=0;left=0;bottom=0;right=0;pointerEvents=1;fontSize=16;rowspan=2;colspan=1;" parent="abffdMrdUMkTcwWsMWbN-69" vertex="1">
          <mxGeometry width="147" height="68" as="geometry">
            <mxRectangle width="147" height="29" as="alternateBounds" />
          </mxGeometry>
        </mxCell>
        <mxCell id="abffdMrdUMkTcwWsMWbN-71" value="Middleware" style="shape=partialRectangle;html=1;whiteSpace=wrap;connectable=0;strokeColor=inherit;overflow=hidden;fillColor=none;top=0;left=0;bottom=0;right=0;pointerEvents=1;fontSize=16;rowspan=1;colspan=3;" parent="abffdMrdUMkTcwWsMWbN-69" vertex="1">
          <mxGeometry x="147" width="540" height="29" as="geometry">
            <mxRectangle width="180" height="29" as="alternateBounds" />
          </mxGeometry>
        </mxCell>
        <mxCell id="abffdMrdUMkTcwWsMWbN-72" value="" style="shape=partialRectangle;html=1;whiteSpace=wrap;connectable=0;strokeColor=inherit;overflow=hidden;fillColor=none;top=0;left=0;bottom=0;right=0;pointerEvents=1;fontSize=16;" parent="abffdMrdUMkTcwWsMWbN-69" vertex="1" visible="0">
          <mxGeometry x="327" width="190" height="29" as="geometry">
            <mxRectangle width="190" height="29" as="alternateBounds" />
          </mxGeometry>
        </mxCell>
        <mxCell id="abffdMrdUMkTcwWsMWbN-82" value="" style="shape=partialRectangle;html=1;whiteSpace=wrap;connectable=0;strokeColor=inherit;overflow=hidden;fillColor=none;top=0;left=0;bottom=0;right=0;pointerEvents=1;fontSize=16;" parent="abffdMrdUMkTcwWsMWbN-69" vertex="1" visible="0">
          <mxGeometry x="517" width="170" height="29" as="geometry">
            <mxRectangle width="170" height="29" as="alternateBounds" />
          </mxGeometry>
        </mxCell>
        <mxCell id="abffdMrdUMkTcwWsMWbN-198" value="SAP" style="shape=partialRectangle;html=1;whiteSpace=wrap;connectable=0;strokeColor=inherit;overflow=hidden;fillColor=none;top=0;left=0;bottom=0;right=0;pointerEvents=1;fontSize=16;rowspan=2;colspan=1;" parent="abffdMrdUMkTcwWsMWbN-69" vertex="1">
          <mxGeometry x="687" width="170" height="68" as="geometry">
            <mxRectangle width="170" height="29" as="alternateBounds" />
          </mxGeometry>
        </mxCell>
        <mxCell id="abffdMrdUMkTcwWsMWbN-166" style="shape=tableRow;horizontal=0;startSize=0;swimlaneHead=0;swimlaneBody=0;strokeColor=inherit;top=0;left=0;bottom=0;right=0;collapsible=0;dropTarget=0;fillColor=none;points=[[0,0.5],[1,0.5]];portConstraint=eastwest;fontSize=16;" parent="abffdMrdUMkTcwWsMWbN-68" vertex="1">
          <mxGeometry y="29" width="857" height="39" as="geometry" />
        </mxCell>
        <mxCell id="abffdMrdUMkTcwWsMWbN-167" style="shape=partialRectangle;html=1;whiteSpace=wrap;connectable=0;strokeColor=inherit;overflow=hidden;fillColor=none;top=0;left=0;bottom=0;right=0;pointerEvents=1;fontSize=16;" parent="abffdMrdUMkTcwWsMWbN-166" vertex="1" visible="0">
          <mxGeometry width="147" height="39" as="geometry">
            <mxRectangle width="147" height="39" as="alternateBounds" />
          </mxGeometry>
        </mxCell>
        <mxCell id="abffdMrdUMkTcwWsMWbN-168" value="Web Service" style="shape=partialRectangle;html=1;whiteSpace=wrap;connectable=0;strokeColor=inherit;overflow=hidden;fillColor=none;top=0;left=0;bottom=0;right=0;pointerEvents=1;fontSize=16;" parent="abffdMrdUMkTcwWsMWbN-166" vertex="1">
          <mxGeometry x="147" width="180" height="39" as="geometry">
            <mxRectangle width="180" height="39" as="alternateBounds" />
          </mxGeometry>
        </mxCell>
        <mxCell id="abffdMrdUMkTcwWsMWbN-169" value="Transform" style="shape=partialRectangle;html=1;whiteSpace=wrap;connectable=0;strokeColor=inherit;overflow=hidden;fillColor=none;top=0;left=0;bottom=0;right=0;pointerEvents=1;fontSize=16;" parent="abffdMrdUMkTcwWsMWbN-166" vertex="1">
          <mxGeometry x="327" width="190" height="39" as="geometry">
            <mxRectangle width="190" height="39" as="alternateBounds" />
          </mxGeometry>
        </mxCell>
        <mxCell id="abffdMrdUMkTcwWsMWbN-170" value="ETL" style="shape=partialRectangle;html=1;whiteSpace=wrap;connectable=0;strokeColor=inherit;overflow=hidden;fillColor=none;top=0;left=0;bottom=0;right=0;pointerEvents=1;fontSize=16;" parent="abffdMrdUMkTcwWsMWbN-166" vertex="1">
          <mxGeometry x="517" width="170" height="39" as="geometry">
            <mxRectangle width="170" height="39" as="alternateBounds" />
          </mxGeometry>
        </mxCell>
        <mxCell id="abffdMrdUMkTcwWsMWbN-199" style="shape=partialRectangle;html=1;whiteSpace=wrap;connectable=0;strokeColor=inherit;overflow=hidden;fillColor=none;top=0;left=0;bottom=0;right=0;pointerEvents=1;fontSize=16;" parent="abffdMrdUMkTcwWsMWbN-166" vertex="1" visible="0">
          <mxGeometry x="687" width="170" height="39" as="geometry">
            <mxRectangle width="170" height="39" as="alternateBounds" />
          </mxGeometry>
        </mxCell>
        <mxCell id="abffdMrdUMkTcwWsMWbN-73" value="" style="shape=tableRow;horizontal=0;startSize=0;swimlaneHead=0;swimlaneBody=0;strokeColor=inherit;top=0;left=0;bottom=0;right=0;collapsible=0;dropTarget=0;fillColor=none;points=[[0,0.5],[1,0.5]];portConstraint=eastwest;fontSize=16;" parent="abffdMrdUMkTcwWsMWbN-68" vertex="1">
          <mxGeometry y="68" width="857" height="872" as="geometry" />
        </mxCell>
        <mxCell id="abffdMrdUMkTcwWsMWbN-74" value="" style="shape=partialRectangle;html=1;whiteSpace=wrap;connectable=0;strokeColor=inherit;overflow=hidden;fillColor=none;top=0;left=0;bottom=0;right=0;pointerEvents=1;fontSize=16;" parent="abffdMrdUMkTcwWsMWbN-73" vertex="1">
          <mxGeometry width="147" height="872" as="geometry">
            <mxRectangle width="147" height="872" as="alternateBounds" />
          </mxGeometry>
        </mxCell>
        <mxCell id="abffdMrdUMkTcwWsMWbN-76" value="" style="shape=partialRectangle;html=1;whiteSpace=wrap;connectable=0;strokeColor=inherit;overflow=hidden;fillColor=none;top=0;left=0;bottom=0;right=0;pointerEvents=1;fontSize=16;" parent="abffdMrdUMkTcwWsMWbN-73" vertex="1">
          <mxGeometry x="147" width="180" height="872" as="geometry">
            <mxRectangle width="180" height="872" as="alternateBounds" />
          </mxGeometry>
        </mxCell>
        <mxCell id="abffdMrdUMkTcwWsMWbN-83" style="shape=partialRectangle;html=1;whiteSpace=wrap;connectable=0;strokeColor=inherit;overflow=hidden;fillColor=none;top=0;left=0;bottom=0;right=0;pointerEvents=1;fontSize=16;" parent="abffdMrdUMkTcwWsMWbN-73" vertex="1">
          <mxGeometry x="327" width="190" height="872" as="geometry">
            <mxRectangle width="190" height="872" as="alternateBounds" />
          </mxGeometry>
        </mxCell>
        <mxCell id="abffdMrdUMkTcwWsMWbN-134" value="" style="whiteSpace=wrap;html=1;rounded=0;glass=0;strokeWidth=1;shadow=0;" parent="abffdMrdUMkTcwWsMWbN-73" vertex="1">
          <mxGeometry x="517" width="170" height="872" as="geometry">
            <mxRectangle width="170" height="872" as="alternateBounds" />
          </mxGeometry>
        </mxCell>
        <mxCell id="abffdMrdUMkTcwWsMWbN-200" style="whiteSpace=wrap;html=1;rounded=0;glass=0;strokeWidth=1;shadow=0;" parent="abffdMrdUMkTcwWsMWbN-73" vertex="1">
          <mxGeometry x="687" width="170" height="872" as="geometry">
            <mxRectangle width="170" height="872" as="alternateBounds" />
          </mxGeometry>
        </mxCell>
        <mxCell id="abffdMrdUMkTcwWsMWbN-136" value="" style="whiteSpace=wrap;html=1;rounded=0;glass=0;strokeWidth=1;shadow=0;" parent="abffdMrdUMkTcwWsMWbN-73" vertex="1">
          <mxGeometry x="857" width="NaN" height="872" as="geometry">
            <mxRectangle width="NaN" height="872" as="alternateBounds" />
          </mxGeometry>
        </mxCell>
        <mxCell id="abffdMrdUMkTcwWsMWbN-75" value="" style="shape=partialRectangle;html=1;whiteSpace=wrap;connectable=0;strokeColor=inherit;overflow=hidden;fillColor=none;top=0;left=0;bottom=0;right=0;pointerEvents=1;fontSize=16;" parent="abffdMrdUMkTcwWsMWbN-73" vertex="1">
          <mxGeometry width="NaN" height="872" as="geometry">
            <mxRectangle width="NaN" height="872" as="alternateBounds" />
          </mxGeometry>
        </mxCell>
        <mxCell id="1bXpofMW4giHbhBOLRSV-8" style="edgeStyle=orthogonalEdgeStyle;rounded=0;orthogonalLoop=1;jettySize=auto;html=1;" edge="1" parent="WIyWlLk6GJQsqaUBKTNV-1" source="abffdMrdUMkTcwWsMWbN-129" target="abffdMrdUMkTcwWsMWbN-202">
          <mxGeometry relative="1" as="geometry">
            <Array as="points">
              <mxPoint x="-380" y="-760" />
            </Array>
          </mxGeometry>
        </mxCell>
        <mxCell id="abffdMrdUMkTcwWsMWbN-129" value="轉換資料" style="rounded=0;whiteSpace=wrap;html=1;" parent="WIyWlLk6GJQsqaUBKTNV-1" vertex="1">
          <mxGeometry x="-440" y="-870" width="130" height="70" as="geometry" />
        </mxCell>
        <mxCell id="1bXpofMW4giHbhBOLRSV-4" style="edgeStyle=orthogonalEdgeStyle;rounded=0;orthogonalLoop=1;jettySize=auto;html=1;" edge="1" parent="WIyWlLk6GJQsqaUBKTNV-1" source="abffdMrdUMkTcwWsMWbN-85" target="1bXpofMW4giHbhBOLRSV-0">
          <mxGeometry relative="1" as="geometry">
            <Array as="points">
              <mxPoint x="-728" y="-980" />
              <mxPoint x="-570" y="-980" />
            </Array>
          </mxGeometry>
        </mxCell>
        <mxCell id="abffdMrdUMkTcwWsMWbN-85" value="Requests&lt;br&gt;少量資料&lt;br&gt;增/查/改/刪" style="rounded=1;whiteSpace=wrap;html=1;fontSize=12;glass=0;strokeWidth=1;shadow=0;" parent="WIyWlLk6GJQsqaUBKTNV-1" vertex="1">
          <mxGeometry x="-793" y="-1040" width="130" height="50" as="geometry" />
        </mxCell>
        <mxCell id="KxMFEPLffLfE-ceTEBni-1" style="edgeStyle=orthogonalEdgeStyle;rounded=0;orthogonalLoop=1;jettySize=auto;html=1;" parent="WIyWlLk6GJQsqaUBKTNV-1" source="abffdMrdUMkTcwWsMWbN-144" target="1bXpofMW4giHbhBOLRSV-10" edge="1">
          <mxGeometry relative="1" as="geometry">
            <Array as="points">
              <mxPoint x="-30" y="-540" />
              <mxPoint x="-560" y="-540" />
            </Array>
            <mxPoint x="-560" y="-500" as="targetPoint" />
          </mxGeometry>
        </mxCell>
        <mxCell id="abffdMrdUMkTcwWsMWbN-144" value="執行CRUD" style="rounded=0;whiteSpace=wrap;html=1;" parent="WIyWlLk6GJQsqaUBKTNV-1" vertex="1">
          <mxGeometry x="-90" y="-610" width="120" height="60" as="geometry" />
        </mxCell>
        <mxCell id="KxMFEPLffLfE-ceTEBni-7" style="edgeStyle=orthogonalEdgeStyle;rounded=0;orthogonalLoop=1;jettySize=auto;html=1;" parent="WIyWlLk6GJQsqaUBKTNV-1" source="abffdMrdUMkTcwWsMWbN-147" target="KxMFEPLffLfE-ceTEBni-5" edge="1">
          <mxGeometry relative="1" as="geometry">
            <Array as="points">
              <mxPoint x="-380" y="-330" />
            </Array>
          </mxGeometry>
        </mxCell>
        <mxCell id="abffdMrdUMkTcwWsMWbN-147" value="Transform data" style="rounded=0;whiteSpace=wrap;html=1;" parent="WIyWlLk6GJQsqaUBKTNV-1" vertex="1">
          <mxGeometry x="-440" y="-430" width="120" height="60" as="geometry" />
        </mxCell>
        <mxCell id="abffdMrdUMkTcwWsMWbN-151" value="顯示結果" style="rounded=1;whiteSpace=wrap;html=1;" parent="WIyWlLk6GJQsqaUBKTNV-1" vertex="1">
          <mxGeometry x="-788" y="-260" width="120" height="60" as="geometry" />
        </mxCell>
        <mxCell id="1bXpofMW4giHbhBOLRSV-9" style="edgeStyle=orthogonalEdgeStyle;rounded=0;orthogonalLoop=1;jettySize=auto;html=1;" edge="1" parent="WIyWlLk6GJQsqaUBKTNV-1" source="abffdMrdUMkTcwWsMWbN-202" target="abffdMrdUMkTcwWsMWbN-206">
          <mxGeometry relative="1" as="geometry">
            <Array as="points">
              <mxPoint x="-570" y="-720" />
              <mxPoint x="-200" y="-720" />
            </Array>
          </mxGeometry>
        </mxCell>
        <mxCell id="abffdMrdUMkTcwWsMWbN-202" value="接收轉換後資料" style="rounded=0;whiteSpace=wrap;html=1;" parent="WIyWlLk6GJQsqaUBKTNV-1" vertex="1">
          <mxGeometry x="-630" y="-790" width="120" height="60" as="geometry" />
        </mxCell>
        <mxCell id="KxMFEPLffLfE-ceTEBni-0" style="edgeStyle=orthogonalEdgeStyle;rounded=0;orthogonalLoop=1;jettySize=auto;html=1;" parent="WIyWlLk6GJQsqaUBKTNV-1" source="abffdMrdUMkTcwWsMWbN-206" target="abffdMrdUMkTcwWsMWbN-144" edge="1">
          <mxGeometry relative="1" as="geometry">
            <Array as="points">
              <mxPoint x="-200" y="-630" />
              <mxPoint x="-30" y="-630" />
            </Array>
          </mxGeometry>
        </mxCell>
        <mxCell id="abffdMrdUMkTcwWsMWbN-206" value="Call SAP RFC" style="rounded=0;whiteSpace=wrap;html=1;" parent="WIyWlLk6GJQsqaUBKTNV-1" vertex="1">
          <mxGeometry x="-260" y="-700" width="120" height="60" as="geometry" />
        </mxCell>
        <mxCell id="KxMFEPLffLfE-ceTEBni-6" style="edgeStyle=orthogonalEdgeStyle;rounded=0;orthogonalLoop=1;jettySize=auto;html=1;" parent="WIyWlLk6GJQsqaUBKTNV-1" source="KxMFEPLffLfE-ceTEBni-5" target="abffdMrdUMkTcwWsMWbN-151" edge="1">
          <mxGeometry relative="1" as="geometry">
            <Array as="points">
              <mxPoint x="-560" y="-280" />
              <mxPoint x="-728" y="-280" />
            </Array>
          </mxGeometry>
        </mxCell>
        <mxCell id="KxMFEPLffLfE-ceTEBni-5" value="接收轉換後資料" style="rounded=0;whiteSpace=wrap;html=1;" parent="WIyWlLk6GJQsqaUBKTNV-1" vertex="1">
          <mxGeometry x="-620" y="-360" width="120" height="60" as="geometry" />
        </mxCell>
        <mxCell id="1bXpofMW4giHbhBOLRSV-5" style="edgeStyle=orthogonalEdgeStyle;rounded=0;orthogonalLoop=1;jettySize=auto;html=1;" edge="1" parent="WIyWlLk6GJQsqaUBKTNV-1" source="1bXpofMW4giHbhBOLRSV-0" target="abffdMrdUMkTcwWsMWbN-129">
          <mxGeometry relative="1" as="geometry">
            <Array as="points">
              <mxPoint x="-380" y="-910" />
            </Array>
          </mxGeometry>
        </mxCell>
        <mxCell id="1bXpofMW4giHbhBOLRSV-6" value="Yes" style="edgeLabel;html=1;align=center;verticalAlign=middle;resizable=0;points=[];" vertex="1" connectable="0" parent="1bXpofMW4giHbhBOLRSV-5">
          <mxGeometry x="-0.0481" relative="1" as="geometry">
            <mxPoint as="offset" />
          </mxGeometry>
        </mxCell>
        <mxCell id="1bXpofMW4giHbhBOLRSV-7" value="No" style="edgeStyle=orthogonalEdgeStyle;rounded=0;orthogonalLoop=1;jettySize=auto;html=1;" edge="1" parent="WIyWlLk6GJQsqaUBKTNV-1" source="1bXpofMW4giHbhBOLRSV-0" target="abffdMrdUMkTcwWsMWbN-202">
          <mxGeometry relative="1" as="geometry">
            <Array as="points">
              <mxPoint x="-570" y="-790" />
              <mxPoint x="-570" y="-790" />
            </Array>
          </mxGeometry>
        </mxCell>
        <mxCell id="1bXpofMW4giHbhBOLRSV-0" value="是否需轉換" style="strokeWidth=2;html=1;shape=mxgraph.flowchart.decision;whiteSpace=wrap;direction=south;" vertex="1" parent="WIyWlLk6GJQsqaUBKTNV-1">
          <mxGeometry x="-620" y="-960" width="100" height="100" as="geometry" />
        </mxCell>
        <mxCell id="1bXpofMW4giHbhBOLRSV-11" value="Yes" style="edgeStyle=orthogonalEdgeStyle;rounded=0;orthogonalLoop=1;jettySize=auto;html=1;exitX=0.5;exitY=0;exitDx=0;exitDy=0;exitPerimeter=0;" edge="1" parent="WIyWlLk6GJQsqaUBKTNV-1" source="1bXpofMW4giHbhBOLRSV-10" target="abffdMrdUMkTcwWsMWbN-147">
          <mxGeometry relative="1" as="geometry">
            <Array as="points">
              <mxPoint x="-390" y="-470" />
            </Array>
          </mxGeometry>
        </mxCell>
        <mxCell id="1bXpofMW4giHbhBOLRSV-12" value="No" style="edgeStyle=orthogonalEdgeStyle;rounded=0;orthogonalLoop=1;jettySize=auto;html=1;" edge="1" parent="WIyWlLk6GJQsqaUBKTNV-1" source="1bXpofMW4giHbhBOLRSV-10" target="KxMFEPLffLfE-ceTEBni-5">
          <mxGeometry relative="1" as="geometry">
            <Array as="points">
              <mxPoint x="-560" y="-300" />
              <mxPoint x="-560" y="-300" />
            </Array>
          </mxGeometry>
        </mxCell>
        <mxCell id="1bXpofMW4giHbhBOLRSV-10" value="是否需轉換" style="strokeWidth=2;html=1;shape=mxgraph.flowchart.decision;whiteSpace=wrap;direction=south;" vertex="1" parent="WIyWlLk6GJQsqaUBKTNV-1">
          <mxGeometry x="-610" y="-520" width="100" height="100" as="geometry" />
        </mxCell>
      </root>
    </mxGraphModel>
  </diagram>
</mxfile>
